<?xml version="1.0" encoding="UTF-8"?>
<svg xmlns="http://www.w3.org/2000/svg" width="500" height="500" viewBox="0 0 500 500">
  <path d="M25,225 h25v25h-25z M100,225 h25v25h-25z M125,225 h25v25h-25z M225,225 h25v25h-25z M275,225 h25v25h-25z M400,225 h25v25h-25z M25,250 h25v25h-25z M50,250 h25v25h-25z M175,250 h25v25h-25z M325,250 h25v25h-25z M25,275 h25v25h-25z M50,275 h25v25h-25z M175,275 h25v25h-25z M225,275 h25v25h-25z M275,275 h25v25h-25z M300,275 h25v25h-25z M350,275 h25v25h-25z M25,300 h25v25h-25z M325,325 h25v25h-25z" fill="#000000"/>
</svg>